<svg width="42" height="45" xmlns="http://www.w3.org/2000/svg" viewBox="0 0 256 256" style="enable-background:new 0 0 256 256" xml:space="preserve"><style>.st2{fill:none;stroke:#6b1d1d;stroke-width:.5;stroke-miterlimit:10}.st3{fill:#3a312a}.st8{fill:#f16c7a}.st9{fill:#8ac6dd}.st14{fill:#d7e057}</style><g id="Layer_1"><path class="st8" d="M215.897 76.862c0 2.34-.8 4.69-2.44 6.6l-9.29 10.81a9.9 9.9 0 0 1-3.81 2.75 89.177 89.177 0 0 0-13.12-13.44c.38-.89.91-1.74 1.57-2.51l9.29-10.81c3.64-4.24 10.03-4.72 14.28-1.08 2.33 2 3.52 4.829 3.52 7.68z"/><path class="st3" d="M200.357 98.521a1.5 1.5 0 0 1-1.178-.571 87.765 87.765 0 0 0-12.899-13.214 1.499 1.499 0 0 1-.423-1.744 11.258 11.258 0 0 1 1.81-2.897l9.293-10.812c4.167-4.857 11.52-5.414 16.392-1.242a11.603 11.603 0 0 1 4.045 8.819c0 2.782-.995 5.473-2.803 7.578l-9.29 10.81a11.31 11.31 0 0 1-4.384 3.163c-.182.075-.373.11-.563.11zm-11.243-15.322a90.882 90.882 0 0 1 11.669 11.955 8.359 8.359 0 0 0 2.244-1.857l9.292-10.812a8.632 8.632 0 0 0 2.078-5.623 8.61 8.61 0 0 0-2.997-6.541c-3.616-3.096-9.072-2.684-12.164.919l-9.292 10.81a8.468 8.468 0 0 0-.83 1.149z"/><circle transform="rotate(-84.347 131.037 151.534)" cx="131.037" cy="151.529" style="fill:#87796f" r="88.176"/><path class="st3" d="M131.037 241.205c-49.447 0-89.676-40.228-89.676-89.675s40.228-89.676 89.676-89.676 89.676 40.229 89.676 89.676-40.229 89.675-89.676 89.675zm0-176.351c-47.793 0-86.676 38.883-86.676 86.676s38.883 86.675 86.676 86.675 86.676-38.882 86.676-86.675-38.883-86.676-86.676-86.676z"/><path class="st14" d="M72.093 109.577c-8.439 11.836-13.42 26.308-13.42 41.952 0 39.966 32.398 72.364 72.364 72.364s72.364-32.399 72.364-72.364c0-39.966-32.399-72.364-72.364-72.364-19.051 0-36.371 7.373-49.293 19.406l-9.651 11.006z"/><path class="st3" d="M131.037 225.394c-40.728 0-73.864-33.135-73.864-73.864 0-15.447 4.737-30.254 13.698-42.823a1.5 1.5 0 0 1 2.444 1.742c-8.598 12.057-13.142 26.263-13.142 41.081 0 39.075 31.79 70.864 70.864 70.864s70.864-31.79 70.864-70.864-31.79-70.864-70.864-70.864c-17.969 0-35.111 6.749-48.27 19.004a1.5 1.5 0 0 1-2.045-2.195c13.717-12.774 31.586-19.809 50.315-19.809 40.729 0 73.864 33.135 73.864 73.864s-33.135 73.864-73.864 73.864z"/><path class="st9" d="M143.007 43.492v21.01c-3.91-.54-7.91-.81-11.97-.81-4.06 0-8.06.27-11.97.81v-21.01h23.94z"/><path class="st3" d="M143.007 66.002a1.57 1.57 0 0 1-.205-.014c-7.646-1.057-15.883-1.057-23.529 0a1.5 1.5 0 0 1-1.705-1.486v-21.01a1.5 1.5 0 0 1 1.5-1.5h23.939a1.5 1.5 0 0 1 1.5 1.5v21.01a1.5 1.5 0 0 1-1.5 1.5zm-11.97-3.811c3.531 0 7.045.204 10.47.607V44.992h-20.939v17.806a89.803 89.803 0 0 1 10.469-.607z"/><path class="st9" d="M115.224 16.598h-8.931a8.547 8.547 0 0 0-8.547 8.547v9.472a8.547 8.547 0 0 0 8.547 8.547h49.489a8.547 8.547 0 0 0 8.547-8.547v-9.472a8.547 8.547 0 0 0-8.547-8.547h-40.558z"/><path class="st3" d="M155.782 44.664h-49.489c-5.54 0-10.048-4.507-10.048-10.047v-9.472c0-5.54 4.508-10.047 10.048-10.047h8.931a1.5 1.5 0 1 1 0 3h-8.931c-3.886 0-7.048 3.161-7.048 7.047v9.472c0 3.886 3.162 7.047 7.048 7.047h49.489a7.055 7.055 0 0 0 7.047-7.047v-9.472a7.055 7.055 0 0 0-7.047-7.047H129.35a1.5 1.5 0 1 1 0-3h26.432c5.54 0 10.047 4.507 10.047 10.047v9.472c0 5.54-4.507 10.047-10.047 10.047z"/><path class="st14" d="M67.698 25.972s3.408 12.659 13.222 13.246c0 0-13.1 4.525-13.321 14.202 0 0-2.578-13.572-12.925-14.059 0 .001 12.05-1.825 13.024-13.389z"/><path class="st3" d="M67.598 54.92a1.502 1.502 0 0 1-1.473-1.217c-.023-.124-2.494-12.417-11.521-12.842a1.5 1.5 0 0 1-.155-2.982c.441-.069 10.895-1.817 11.754-12.033a1.501 1.501 0 0 1 2.943-.265c.031.116 3.259 11.626 11.863 12.141a1.501 1.501 0 0 1 .401 2.915c-.121.042-12.118 4.31-12.312 12.819a1.498 1.498 0 0 1-1.5 1.464zm-7.741-15.73c3.878 1.969 6.229 5.746 7.586 8.876 2.026-4.021 5.942-6.787 8.949-8.427-4.134-1.842-6.783-5.651-8.334-8.722-1.792 4.361-5.27 6.869-8.201 8.273z"/><path class="st14" d="M46 42.953s2.411 8.954 9.352 9.369c0 0-9.266 3.201-9.422 10.045 0 0-1.824-9.6-9.142-9.944-.001 0 8.523-1.291 9.212-9.47z"/><path class="st3" d="M45.929 63.868a1.5 1.5 0 0 1-1.473-1.22c-.016-.082-1.704-8.442-7.739-8.726a1.5 1.5 0 0 1-.155-2.982c.296-.047 7.363-1.243 7.941-8.114a1.501 1.501 0 0 1 1.361-1.368 1.506 1.506 0 0 1 1.581 1.102c.022.079 2.229 7.92 7.995 8.265a1.5 1.5 0 0 1 .4 2.915c-.081.028-8.282 2.952-8.412 8.662a1.501 1.501 0 0 1-1.499 1.466zm-4.52-11.528c2.107 1.333 3.523 3.395 4.447 5.28 1.376-2.232 3.516-3.872 5.365-4.972-2.287-1.27-3.885-3.35-4.942-5.224-1.173 2.286-3.014 3.875-4.87 4.916z"/><path class="st14" d="M46 16.295s2.411 8.954 9.352 9.369c0 0-9.266 3.201-9.422 10.045 0 0-1.824-9.6-9.142-9.944-.001.001 8.523-1.29 9.212-9.47z"/><path class="st3" d="M45.929 37.21a1.5 1.5 0 0 1-1.473-1.22c-.016-.082-1.704-8.442-7.739-8.726a1.5 1.5 0 0 1-.155-2.982c.296-.047 7.363-1.243 7.941-8.113a1.499 1.499 0 0 1 2.942-.267c.022.079 2.229 7.92 7.995 8.264a1.5 1.5 0 0 1 .4 2.915c-.081.028-8.282 2.953-8.412 8.662a1.5 1.5 0 0 1-1.499 1.467zm-4.52-11.527c2.107 1.333 3.523 3.394 4.447 5.28 1.376-2.232 3.516-3.872 5.365-4.973-2.288-1.269-3.885-3.35-4.942-5.224-1.173 2.287-3.014 3.875-4.87 4.917zM131.037 85.371c-.79 0-1.43.64-1.43 1.43v2.905a1.43 1.43 0 1 0 2.86 0v-2.905c0-.789-.64-1.43-1.43-1.43zM131.037 211.856c-.79 0-1.43.64-1.43 1.43v2.905a1.43 1.43 0 1 0 2.86 0v-2.905c0-.79-.64-1.43-1.43-1.43zM197.162 151.497c0-.79-.64-1.43-1.43-1.43h-2.905a1.43 1.43 0 1 0 0 2.86h2.905c.79 0 1.43-.641 1.43-1.43zM70.677 151.497c0-.79-.64-1.43-1.43-1.43h-2.905a1.43 1.43 0 1 0 0 2.86h2.905c.79 0 1.43-.641 1.43-1.43zM177.795 104.739a1.43 1.43 0 0 0-2.022 0l-2.055 2.055a1.429 1.429 0 0 0 0 2.022 1.432 1.432 0 0 0 2.023 0l2.054-2.055a1.43 1.43 0 0 0 0-2.022zM88.356 194.177a1.429 1.429 0 0 0-2.022 0l-2.054 2.054a1.429 1.429 0 0 0 0 2.022 1.429 1.429 0 0 0 2.022 0l2.054-2.054a1.429 1.429 0 0 0 0-2.022zM177.795 198.254a1.43 1.43 0 0 0 0-2.022l-2.054-2.054a1.43 1.43 0 1 0-2.023 2.023l2.055 2.054a1.431 1.431 0 0 0 2.022-.001zM88.356 108.816a1.429 1.429 0 0 0 0-2.022l-2.054-2.054a1.429 1.429 0 0 0-2.022 0 1.432 1.432 0 0 0 0 2.023l2.054 2.054a1.431 1.431 0 0 0 2.022-.001z"/><path class="st3" d="M177.793 198.252c-.56.56-1.464.56-2.023 0l-2.049-2.049a1.428 1.428 0 0 1 0-2.023c.56-.56 1.464-.56 2.023 0l2.049 2.049a1.43 1.43 0 0 1 0 2.023z"/><path class="st8" d="M125.797 129.83v13.601a9.596 9.596 0 0 1 5.24-1.55c1.93 0 3.73.57 5.24 1.55v-41.07c0-2.9-2.35-5.24-5.24-5.24s-5.24 2.34-5.24 5.24v27.469z"/><path class="st3" d="M136.277 144.932c-.285 0-.569-.081-.816-.242-2.639-1.712-6.209-1.712-8.848 0a1.502 1.502 0 0 1-2.316-1.258V129.83a1.5 1.5 0 1 1 3 0v11.197a11.277 11.277 0 0 1 7.48 0v-38.666c0-2.062-1.678-3.74-3.74-3.74s-3.74 1.678-3.74 3.74v12.885a1.5 1.5 0 1 1-3 0v-12.885a6.748 6.748 0 0 1 6.74-6.74 6.747 6.747 0 0 1 6.74 6.74v41.07a1.5 1.5 0 0 1-1.5 1.501z"/><path d="M140.688 151.529c0 5.33-4.321 9.651-9.651 9.651s-9.651-4.321-9.651-9.651 4.321-9.651 9.651-9.651 9.651 4.321 9.651 9.651z" style="fill:#fce8cb"/><path class="st3" d="M131.037 162.68c-6.148 0-11.15-5.003-11.15-11.151s5.002-11.151 11.15-11.151c6.148 0 11.15 5.003 11.15 11.151.001 6.149-5.001 11.151-11.15 11.151zm0-19.302c-4.494 0-8.15 3.656-8.15 8.151s3.656 8.151 8.15 8.151 8.15-3.656 8.15-8.151-3.656-8.151-8.15-8.151z"/><path d="M131.04 80.67c-2.52 0-5.03.13-7.51.4 35.56 3.74 63.37 33.91 63.37 70.46 0 36.54-27.8 66.71-63.36 70.46 2.47.27 4.97.4 7.5.4 39.07 0 70.86-31.79 70.86-70.86 0-39.08-31.79-70.86-70.86-70.86zm46.75 26.09-2.05 2.06c-.56.55-1.46.55-2.02 0-.56-.56-.56-1.47 0-2.03l2.05-2.05c.56-.56 1.47-.56 2.02 0 .56.56.56 1.46 0 2.02zm0 91.49c-.41.42-1.03.53-1.55.32-.16-.07-.32-.17-.46-.31l-.01-.01-2.05-2.05c-.28-.28-.42-.64-.42-1.01s.14-.73.42-1.01c.56-.56 1.46-.56 2.02 0l2.05 2.05c.01 0 .01.01.01.01.14.14.24.3.31.46.21.52.1 1.13-.32 1.55zm17.94-45.32h-2.9a1.43 1.43 0 1 1 0-2.86h2.9a1.43 1.43 0 1 1 0 2.86z" style="fill:#b9c239"/></g></svg>